<svg width="232" height="51" viewBox="0 0 232 51" fill="none" xmlns="http://www.w3.org/2000/svg">
<path d="M62.4072 12.4455V36.7541H58.4199V12.4455H62.4072Z" fill="#185FA0"/>
<path d="M77.3657 17.1673C78.8813 17.1673 80.2337 17.4821 81.4229 18.1117C82.6355 18.7413 83.5798 19.674 84.256 20.9098C84.9322 22.1456 85.2703 23.638 85.2703 25.3868V36.7541H81.318V25.9814C81.318 24.2559 80.8866 22.9384 80.0239 22.029C79.1611 21.0963 77.9836 20.63 76.4913 20.63C74.9989 20.63 73.8097 21.0963 72.9237 22.029C72.0609 22.9384 71.6295 24.2559 71.6295 25.9814V36.7541H67.6422V17.4821H71.6295V19.6856C72.2824 18.8928 73.1102 18.2749 74.1129 17.8319C75.1388 17.3888 76.2231 17.1673 77.3657 17.1673Z" fill="#185FA0"/>
<path d="M97.3517 37.0689C95.836 37.0689 94.472 36.8008 93.2595 36.2644C92.0703 35.7048 91.1259 34.9587 90.4264 34.026C89.7268 33.0699 89.3538 32.009 89.3071 30.8431H93.4343C93.5043 31.6592 93.889 32.3471 94.5886 32.9067C95.3114 33.443 96.2091 33.7112 97.2817 33.7112C98.401 33.7112 99.2637 33.5013 99.87 33.0816C100.5 32.6386 100.814 32.0789 100.814 31.4027C100.814 30.6799 100.465 30.1436 99.7651 29.7938C99.0889 29.444 98.0046 29.0593 96.5123 28.6396C95.0666 28.2432 93.889 27.8584 92.9796 27.4854C92.0703 27.1123 91.2775 26.541 90.6012 25.7715C89.9483 25.002 89.6219 23.9877 89.6219 22.7286C89.6219 21.7026 89.925 20.7699 90.5313 19.9305C91.1375 19.0677 92.0003 18.3915 93.1195 17.9018C94.2621 17.4122 95.5679 17.1673 97.0369 17.1673C99.2288 17.1673 100.989 17.7269 102.318 18.8462C103.671 19.9421 104.394 21.4461 104.487 23.3581H100.5C100.43 22.4954 100.08 21.8075 99.4503 21.2945C98.8207 20.7815 97.9696 20.5251 96.897 20.5251C95.8477 20.5251 95.0433 20.7233 94.4836 21.1197C93.924 21.5161 93.6442 22.0407 93.6442 22.6936C93.6442 23.2066 93.8307 23.638 94.2038 23.9877C94.5769 24.3375 95.0316 24.6173 95.5679 24.8272C96.1042 25.0137 96.897 25.2585 97.9463 25.5617C99.3453 25.9347 100.488 26.3195 101.374 26.7159C102.283 27.089 103.065 27.6486 103.717 28.3948C104.37 29.1409 104.708 30.1319 104.732 31.3677C104.732 32.4637 104.429 33.443 103.822 34.3058C103.216 35.1685 102.353 35.8447 101.234 36.3344C100.138 36.8241 98.844 37.0689 97.3517 37.0689Z" fill="#185FA0"/>
<path d="M113.692 20.7349V31.4027C113.692 32.1256 113.855 32.6502 114.182 32.9767C114.531 33.2798 115.114 33.4314 115.93 33.4314H118.379V36.7541H115.231C113.435 36.7541 112.06 36.3344 111.104 35.495C110.148 34.6555 109.67 33.2915 109.67 31.4027V20.7349H107.396V17.4821H109.67V12.6903H113.692V17.4821H118.379V20.7349H113.692Z" fill="#185FA0"/>
<path d="M120.725 27.0307C120.725 25.0953 121.121 23.3815 121.914 21.8891C122.73 20.3968 123.826 19.2426 125.202 18.4265C126.601 17.587 128.14 17.1673 129.819 17.1673C131.334 17.1673 132.652 17.4704 133.771 18.0767C134.913 18.6596 135.823 19.3941 136.499 20.2802V17.4821H140.521V36.7541H136.499V33.886C135.823 34.7954 134.902 35.5533 133.736 36.1595C132.57 36.7658 131.241 37.0689 129.749 37.0689C128.093 37.0689 126.577 36.6492 125.202 35.8098C123.826 34.947 122.73 33.7578 121.914 32.2422C121.121 30.7032 120.725 28.966 120.725 27.0307ZM136.499 27.1006C136.499 25.7715 136.219 24.6173 135.66 23.638C135.123 22.6586 134.412 21.9125 133.526 21.3995C132.64 20.8865 131.684 20.63 130.658 20.63C129.632 20.63 128.676 20.8865 127.79 21.3995C126.904 21.8891 126.181 22.6236 125.621 23.603C125.085 24.559 124.817 25.7016 124.817 27.0307C124.817 28.3598 125.085 29.5257 125.621 30.5283C126.181 31.531 126.904 32.3005 127.79 32.8368C128.699 33.3497 129.655 33.6062 130.658 33.6062C131.684 33.6062 132.64 33.3497 133.526 32.8368C134.412 32.3238 135.123 31.5776 135.66 30.5983C136.219 29.5956 136.499 28.4297 136.499 27.1006Z" fill="#185FA0"/>
<path d="M144.429 27.1006C144.429 25.1186 144.826 23.3815 145.619 21.8891C146.435 20.3735 147.554 19.2076 148.976 18.3915C150.399 17.5754 152.031 17.1673 153.873 17.1673C156.205 17.1673 158.129 17.7269 159.644 18.8462C161.183 19.9421 162.221 21.5161 162.757 23.568H158.455C158.105 22.612 157.546 21.8658 156.776 21.3295C156.007 20.7932 155.039 20.5251 153.873 20.5251C152.241 20.5251 150.935 21.108 149.956 22.2739C149 23.4164 148.522 25.0254 148.522 27.1006C148.522 29.1759 149 30.7965 149.956 31.9623C150.935 33.1282 152.241 33.7112 153.873 33.7112C156.182 33.7112 157.709 32.6969 158.455 30.6682H162.757C162.197 32.6269 161.148 34.1892 159.609 35.3551C158.07 36.4976 156.158 37.0689 153.873 37.0689C152.031 37.0689 150.399 36.6608 148.976 35.8447C147.554 35.0053 146.435 33.8394 145.619 32.3471C144.826 30.8314 144.429 29.0826 144.429 27.1006Z" fill="#185FA0"/>
<path d="M170.718 10.8716V36.7541H166.731V10.8716H170.718Z" fill="#185FA0"/>
<path d="M177.982 14.9288C177.259 14.9288 176.653 14.684 176.163 14.1943C175.673 13.7046 175.428 13.0984 175.428 12.3755C175.428 11.6527 175.673 11.0464 176.163 10.5568C176.653 10.0671 177.259 9.82227 177.982 9.82227C178.681 9.82227 179.276 10.0671 179.765 10.5568C180.255 11.0464 180.5 11.6527 180.5 12.3755C180.5 13.0984 180.255 13.7046 179.765 14.1943C179.276 14.684 178.681 14.9288 177.982 14.9288ZM179.94 17.4821V36.7541H175.953V17.4821H179.94Z" fill="#185FA0"/>
<path d="M194.899 17.1673C196.414 17.1673 197.767 17.4821 198.956 18.1117C200.169 18.7413 201.113 19.674 201.789 20.9098C202.465 22.1456 202.803 23.638 202.803 25.3868V36.7541H198.851V25.9814C198.851 24.2559 198.42 22.9384 197.557 22.029C196.694 21.0963 195.517 20.63 194.024 20.63C192.532 20.63 191.343 21.0963 190.457 22.029C189.594 22.9384 189.163 24.2559 189.163 25.9814V36.7541H185.175V17.4821H189.163V19.6856C189.816 18.8928 190.643 18.2749 191.646 17.8319C192.672 17.3888 193.756 17.1673 194.899 17.1673Z" fill="#185FA0"/>
<path d="M209.918 14.9288C209.195 14.9288 208.589 14.684 208.099 14.1943C207.61 13.7046 207.365 13.0984 207.365 12.3755C207.365 11.6527 207.61 11.0464 208.099 10.5568C208.589 10.0671 209.195 9.82227 209.918 9.82227C210.618 9.82227 211.212 10.0671 211.702 10.5568C212.192 11.0464 212.436 11.6527 212.436 12.3755C212.436 13.0984 212.192 13.7046 211.702 14.1943C211.212 14.684 210.618 14.9288 209.918 14.9288ZM211.877 17.4821V36.7541H207.89V17.4821H211.877Z" fill="#185FA0"/>
<path d="M225.366 26.9957L231.592 36.7541H227.08L222.918 30.2135L219.001 36.7541H214.838L221.064 27.2755L214.838 17.4821H219.35L223.512 24.0227L227.43 17.4821H231.592L225.366 26.9957Z" fill="#185FA0"/>
<path d="M2.31609 8.34459C2.30349 8.25731 2.30349 8.16867 2.31609 8.08139C2.34964 7.91735 2.41382 7.7611 2.50526 7.62082C2.60234 7.48103 2.72515 7.36102 2.86713 7.26717C3.00961 7.17422 3.16885 7.10998 3.33593 7.07802M2.31609 8.36928C2.31422 8.07981 2.41092 7.79828 2.59029 7.57107C2.76967 7.34387 3.02103 7.18449 3.30303 7.11913C3.48948 7.07379 3.68408 7.07379 3.87053 7.11913C6.98769 7.95284 10.2692 7.95284 13.3864 7.11913C17.8523 6.12396 19.5054 4.37211 22.1291 2.52981C22.3447 2.37455 22.6036 2.29102 22.8693 2.29102C23.135 2.29102 23.3939 2.37455 23.6095 2.52981C26.2331 4.37211 28.5442 6.3707 32.3522 7.11913C35.4853 7.82111 38.7349 7.82111 41.868 7.11913C42.0337 7.08633 42.2041 7.08633 42.3697 7.11913C42.5364 7.15264 42.6953 7.21677 42.8385 7.30828C43.1216 7.50088 43.3191 7.79565 43.3896 8.13074C43.4022 8.21802 43.4022 8.30666 43.3896 8.39393V28.4454C43.3892 29.292 43.222 30.1301 42.8974 30.9119C42.5728 31.6938 42.0972 32.4039 41.4979 33.0018L23.0831 49.0727L4.20774 32.9689C3.60843 32.3711 3.13288 31.6609 2.80829 30.8791C2.4837 30.0972 2.31644 29.2591 2.31609 28.4126V8.36928ZM13.4361 19.4533H18.4701V14.2134H26.5209V19.2582H31.7016V27.1832H26.6676V32.4788H18.7544V27.0345H13.4361V19.4533Z" stroke="#185FA0" stroke-width="3.2" stroke-linecap="round" stroke-linejoin="round"/>
</svg>
