<svg width="57" height="57" viewBox="0 0 57 57" fill="none" xmlns="http://www.w3.org/2000/svg">
<g clip-path="url(#clip0_1_273)">
<path opacity="0.3" d="M56.5 28.7949C56.5 13.3309 43.964 0.794922 28.5 0.794922C13.036 0.794922 0.5 13.3309 0.5 28.7949C0.5 44.2589 13.036 56.7949 28.5 56.7949C43.964 56.7949 56.5 44.2589 56.5 28.7949Z" fill="#4640DD"/>
<path d="M23.834 19.4614H34.334L32.0007 23.5448L34.334 27.6281H23.834V19.4614Z" fill="white"/>
<path d="M37.4222 35.6578V33.2264C37.4222 32.6741 36.9745 32.2264 36.4222 32.2264H24.383V28.1087H34.0909C34.8896 28.1087 35.366 27.2186 34.9229 26.554L32.7568 23.3048L34.9229 20.0556C35.366 19.391 34.8896 18.5009 34.0909 18.5009H24.383V17.8146C24.383 17.4356 24.0758 17.1284 23.6967 17.1284C23.3177 17.1284 23.0105 17.4356 23.0105 17.8146V18.5009V28.1087V32.2264H20.5791C20.0268 32.2264 19.5791 32.6741 19.5791 33.2264V35.6578H17.834C17.2817 35.6578 16.834 36.1055 16.834 36.6578V39.4617C16.834 40.014 17.2817 40.4617 17.834 40.4617H39.1673C39.7196 40.4617 40.1673 40.014 40.1673 39.4617V36.6578C40.1673 36.1055 39.7196 35.6578 39.1673 35.6578H37.4222ZM33.3949 19.8735L31.1073 23.3048L33.3949 26.7362H24.383V19.8735H33.3949ZM20.9516 33.5989H36.0497V35.6578H20.9516V33.5989ZM38.7948 39.0891H18.2065V37.0303H19.5791H37.4222H38.7948V39.0891Z" fill="#4640DD"/>
</g>
<defs>
<clipPath id="clip0_1_273">
<rect width="56" height="56" fill="white" transform="translate(0.5 0.794922)"/>
</clipPath>
</defs>
</svg>
