<svg width="57" height="57" viewBox="0 0 57 57" fill="none" xmlns="http://www.w3.org/2000/svg">
<g clip-path="url(#clip0_1_307)">
<path opacity="0.3" d="M57 28.8149C57 13.351 44.464 0.814941 29 0.814941C13.536 0.814941 1 13.351 1 28.8149C1 44.2789 13.536 56.8149 29 56.8149C44.464 56.8149 57 44.2789 57 28.8149Z" fill="#4EB2F9"/>
<g clip-path="url(#clip1_1_307)">
<path d="M28 30.3149C28.4 29.5149 27.5 29.3149 27 29.3149L26.5 28.8149C26.1667 28.9816 25.4 29.4149 25 29.8149C24.5 30.3149 24.5 31.3149 25 31.8149C25.5 32.3149 26 32.3149 27 32.8149C28 33.3149 27.5 31.3149 28 30.3149Z" fill="white"/>
<path d="M37.8125 24.2349V26.1099H38.75V29.8599C38.75 30.6058 38.4537 31.3212 37.9262 31.8486C37.3988 32.376 36.6834 32.6724 35.9375 32.6724C35.1916 32.6724 34.4762 32.376 33.9488 31.8486C33.4213 31.3212 33.125 30.6058 33.125 29.8599V26.1099H34.0625V24.2349H31.25V29.8599C31.2514 30.9399 31.6252 31.9865 32.3083 32.8231C32.9914 33.6598 33.942 34.2353 35 34.4527V35.4849C35 36.4794 34.6049 37.4333 33.9016 38.1365C33.1984 38.8398 32.2446 39.2349 31.25 39.2349C30.2554 39.2349 29.3016 38.8398 28.5984 38.1365C27.8951 37.4333 27.5 36.4794 27.5 35.4849V33.4374C28.1255 33.2162 28.6527 32.781 28.9884 32.2088C29.3241 31.6365 29.4467 30.964 29.3345 30.3101C29.2223 29.6562 28.8826 29.063 28.3753 28.6354C27.8681 28.2078 27.226 27.9732 26.5625 27.9732C25.899 27.9732 25.2569 28.2078 24.7497 28.6354C24.2424 29.063 23.9027 29.6562 23.7905 30.3101C23.6783 30.964 23.8009 31.6365 24.1366 32.2088C24.4723 32.781 24.9995 33.2162 25.625 33.4374V35.4849C25.625 36.9767 26.2176 38.4074 27.2725 39.4623C28.3274 40.5172 29.7582 41.1099 31.25 41.1099C32.7418 41.1099 34.1726 40.5172 35.2275 39.4623C36.2824 38.4074 36.875 36.9767 36.875 35.4849V34.4527C37.933 34.2353 38.8836 33.6598 39.5667 32.8231C40.2498 31.9865 40.6236 30.9399 40.625 29.8599V24.2349H37.8125ZM26.5625 29.8599C26.7479 29.8599 26.9292 29.9148 27.0833 30.0179C27.2375 30.1209 27.3577 30.2673 27.4286 30.4386C27.4996 30.6099 27.5182 30.7984 27.482 30.9803C27.4458 31.1621 27.3565 31.3292 27.2254 31.4603C27.0943 31.5914 26.9273 31.6807 26.7454 31.7169C26.5635 31.753 26.375 31.7345 26.2037 31.6635C26.0324 31.5925 25.886 31.4724 25.783 31.3182C25.68 31.164 25.625 30.9828 25.625 30.7974C25.625 30.5487 25.7238 30.3103 25.8996 30.1344C26.0754 29.9586 26.3139 29.8599 26.5625 29.8599Z" fill="#4EB2F9"/>
<path d="M36.875 16.7349H33.125V14.8599H31.25V16.7349H23.75V14.8599H21.875V16.7349H18.125C17.6277 16.7349 17.1508 16.9324 16.7992 17.284C16.4475 17.6357 16.25 18.1126 16.25 18.6099V37.3599C16.25 37.8571 16.4475 38.3341 16.7992 38.6857C17.1508 39.0373 17.6277 39.2349 18.125 39.2349H21.875V37.3599H18.125V18.6099H21.875V20.4849H23.75V18.6099H31.25V20.4849H33.125V18.6099H36.875V22.3599H38.75V18.6099C38.75 18.1126 38.5525 17.6357 38.2008 17.284C37.8492 16.9324 37.3723 16.7349 36.875 16.7349Z" fill="#4EB2F9"/>
</g>
</g>
<defs>
<clipPath id="clip0_1_307">
<rect width="56" height="56" fill="white" transform="translate(0.5 0.564941)"/>
</clipPath>
<clipPath id="clip1_1_307">
<rect width="25" height="27" fill="white" transform="translate(16 14.8149)"/>
</clipPath>
</defs>
</svg>
