<svg width="57" height="57" viewBox="0 0 57 57" fill="none" xmlns="http://www.w3.org/2000/svg">
<g clip-path="url(#clip0_1_284)">
<path opacity="0.3" d="M56.5 28.3848C56.5 12.9208 43.964 0.384766 28.5 0.384766C13.036 0.384766 0.5 12.9208 0.5 28.3848C0.5 43.8487 13.036 56.3848 28.5 56.3848C43.964 56.3848 56.5 43.8487 56.5 28.3848Z" fill="#1EBCB4"/>
<path d="M19.0498 25.595H16.3498V33.695H19.0498V25.595Z" fill="white"/>
<path d="M28.5001 40.4451C29.2456 40.4451 29.8501 39.8407 29.8501 39.0951C29.8501 38.3495 29.2456 37.7451 28.5001 37.7451C27.7545 37.7451 27.1501 38.3495 27.1501 39.0951C27.1501 39.8407 27.7545 40.4451 28.5001 40.4451Z" fill="white"/>
<path d="M40.6502 25.5948H37.9502V33.6948H40.6502V25.5948Z" fill="white"/>
<path d="M41.209 24.1148H38.5802C38.1753 18.9079 33.809 14.7949 28.5001 14.7949C23.1911 14.7949 18.8247 18.9079 18.4198 24.1148H15.791C15.3542 24.1148 15 24.469 15 24.9058V33.3784C15 33.8154 15.3542 34.1695 15.791 34.1695H19.1801C19.617 34.1695 19.9711 33.8154 19.9711 33.3784V24.9058C19.9711 20.203 23.7972 16.3769 28.5001 16.3769C33.2029 16.3769 37.0289 20.203 37.0289 24.9058V33.3784C37.0289 36.2126 34.7232 38.5184 31.8891 38.5184H30.8558C30.5246 37.5345 29.594 36.8238 28.5001 36.8238C27.1295 36.8238 26.0144 37.9389 26.0144 39.3094C26.0144 40.6799 27.1295 41.7949 28.5001 41.7949C29.594 41.7949 30.5246 41.0842 30.8558 40.1004H31.8891C35.3279 40.1004 38.1714 37.5046 38.5642 34.1695H41.209C41.6459 34.1695 42 33.8154 42 33.3784V24.9058C42 24.469 41.6459 24.1148 41.209 24.1148ZM18.389 32.5875H16.582V25.6968H18.389V32.5875ZM28.5001 40.2129C28.0018 40.2129 27.5964 39.8075 27.5964 39.3094C27.5964 38.8112 28.0018 38.4059 28.5001 38.4059C28.9982 38.4059 29.4036 38.8112 29.4036 39.3094C29.4036 39.8075 28.9982 40.2129 28.5001 40.2129ZM40.4179 32.5875H38.611V25.6968H40.4179V32.5875Z" fill="#1EBCB4"/>
<path d="M34.3102 24.175C34.0148 24.0525 33.6745 24.1201 33.4482 24.3463C33.4482 24.3463 30.9785 26.8152 29.8076 27.9853C29.2817 28.5141 28.98 29.2445 28.98 29.9894C28.98 30.4262 29.3342 30.7804 29.7711 30.7804H33.2165V32.5312C33.2165 32.9681 33.5707 33.3222 34.0075 33.3222C34.4443 33.3222 34.7985 32.9681 34.7985 32.5312V30.7804H34.8547C35.2916 30.7804 35.6458 30.4262 35.6458 29.9894C35.6458 29.5526 35.2916 29.1984 34.8547 29.1984H34.7985V24.9058C34.7985 24.5859 34.6057 24.2975 34.3102 24.175ZM33.2165 29.1984H30.8419C30.8688 29.165 30.8974 29.1331 30.9276 29.1027C31.5201 28.5107 32.4467 27.5845 33.2165 26.815V29.1984Z" fill="#1EBCB4"/>
<path d="M27.5968 32.5312C27.5968 32.0943 27.2426 31.7401 26.8058 31.7401H23.6403C23.6671 31.7068 23.6957 31.6748 23.7259 31.6445C24.8952 30.476 27.365 28.007 27.365 28.007C27.5134 27.8586 27.5968 27.6574 27.5968 27.4476V27.024C27.5968 25.4198 26.2918 24.1148 24.6876 24.1148C23.0676 24.1148 21.7784 25.4275 21.7784 27.023C21.7784 27.46 22.1326 27.8145 22.5695 27.8145C23.0063 27.8145 23.3605 27.4599 23.3605 27.023C23.3605 26.298 23.9443 25.6967 24.6876 25.6967C25.4194 25.6967 26.0147 26.2922 26.0147 27.024V27.1198C25.3733 27.761 23.5593 29.5744 22.6059 30.5271C22.08 31.0559 21.7784 31.7864 21.7784 32.5312C21.7784 32.968 22.1326 33.3222 22.5695 33.3222H26.8058C27.2426 33.3222 27.5968 32.9681 27.5968 32.5312Z" fill="#1EBCB4"/>
</g>
<defs>
<clipPath id="clip0_1_284">
<rect width="56" height="56" fill="white" transform="translate(0.5 0.384766)"/>
</clipPath>
</defs>
</svg>
