<svg width="57" height="57" viewBox="0 0 57 57" fill="none" xmlns="http://www.w3.org/2000/svg">
<g clip-path="url(#clip0_1_294)">
<path opacity="0.3" d="M57 28.8052C57 13.3412 44.464 0.805176 29 0.805176C13.536 0.805176 1 13.3412 1 28.8052C1 44.2691 13.536 56.8052 29 56.8052C44.464 56.8052 57 44.2691 57 28.8052Z" fill="#FFB201"/>
<g clip-path="url(#clip1_1_294)">
<path d="M28.1433 17.0908V22.2337ZM17.8576 22.2337L21.0719 25.448ZM35.2147 25.448L38.429 22.2337ZM16.5719 33.8051H20.429ZM28.1433 33.8051L29.429 26.0908ZM35.8576 33.8051H39.7147ZM23.6433 37.6635H17.8576C16.1845 35.4396 15.2818 32.731 15.2861 29.948C15.2861 22.847 21.0423 17.0908 28.1433 17.0908C35.2443 17.0908 41.0004 22.847 41.0004 29.948C41.0004 32.8434 40.0439 35.5151 38.429 37.6635L32.6433 37.6622" fill="white"/>
<path d="M28.1433 17.0908V22.2337M28.1433 17.0908C21.0423 17.0908 15.2861 22.847 15.2861 29.948C15.2818 32.731 16.1845 35.4396 17.8576 37.6635H23.6433M28.1433 17.0908C35.2443 17.0908 41.0004 22.847 41.0004 29.948C41.0004 32.8434 40.0439 35.5151 38.429 37.6635L32.6433 37.6622M17.8576 22.2337L21.0719 25.448M35.2147 25.448L38.429 22.2337M16.5719 33.8051H20.429M28.1433 33.8051L29.429 26.0908M35.8576 33.8051H39.7147" stroke="#FFB201" stroke-width="1.5" stroke-linecap="round" stroke-linejoin="round"/>
<path d="M28.1433 41.5195C29.1663 41.5195 30.1473 41.1131 30.8707 40.3897C31.594 39.6664 32.0004 38.6853 32.0004 37.6623C32.0004 36.6393 31.594 35.6583 30.8707 34.9349C30.1473 34.2116 29.1663 33.8052 28.1433 33.8052C27.1203 33.8052 26.1392 34.2116 25.4159 34.9349C24.6925 35.6583 24.2861 36.6393 24.2861 37.6623C24.2861 38.6853 24.6925 39.6664 25.4159 40.3897C26.1392 41.1131 27.1203 41.5195 28.1433 41.5195Z" fill="#EBDDB3" stroke="#FFB201" stroke-width="1.5" stroke-linecap="round" stroke-linejoin="round"/>
</g>
</g>
<defs>
<clipPath id="clip0_1_294">
<rect width="56" height="56" fill="white" transform="translate(0.5 0.975098)"/>
</clipPath>
<clipPath id="clip1_1_294">
<rect width="28.2857" height="27" fill="white" transform="translate(14 15.8052)"/>
</clipPath>
</defs>
</svg>
