<svg width="184" height="193" viewBox="0 0 184 193" fill="none" xmlns="http://www.w3.org/2000/svg">
<g clip-path="url(#clip0_1_214)">
<path d="M184 72.1274V23.1409L144.679 0.5L138.774 3.92888L178.095 75.5563L184 72.1274Z" fill="#2C393F"/>
<path d="M178.095 75.5561V26.5697L138.774 3.92871V52.5705L178.095 75.5561Z" fill="#4C575C"/>
<path d="M173.516 29.74L143.371 12.4233V49.8653L173.516 67.0097V29.74Z" fill="#D0D0D0"/>
<path d="M170.675 30.3259L157.437 22.71V39.4064L170.675 46.6777V30.3259Z" fill="#3E7C6D"/>
<path d="M155.595 22.176L145.128 16.1108L145.11 26.5353L155.595 32.2559V22.176Z" fill="#3E7C6D"/>
<path d="M55.9336 144.254V166.378L137.157 119.442V97.3184L55.9336 144.254Z" fill="#91909A"/>
<path d="M55.9336 144.254V166.378L14.0137 142.324V119.511L39.6304 126.559L55.9336 144.254Z" fill="#B4B3BA"/>
<path d="M137.156 97.3186L118.202 76.2456L36.9785 123.888L55.9329 144.255L137.156 97.3186Z" fill="#5F5E6D"/>
<path d="M145.059 132.83L137.157 118.736L55.9336 166.378L63.8183 179.766L145.059 132.83Z" fill="#BBBAC1"/>
<path d="M85.1826 159.228L75.6279 164.828L101.52 180.525L112.418 174.27L85.1826 159.228Z" fill="#C2C1C7"/>
<path d="M75.6279 164.828L77.2978 171.961L101.52 186.538V180.525L75.6279 164.828Z" fill="#B2B1B9"/>
<path d="M2.96094 145.909L14.0133 142.325L55.9332 166.379L63.818 179.767L2.96094 145.909Z" fill="#D7D6DA"/>
<path d="M4.32106 119.132V119.804L105.067 62.1164C107.198 60.8888 109.614 60.2427 112.073 60.2427C114.532 60.2427 116.949 60.8888 119.08 62.1164L138.775 73.6437H145.007V79.1058V79.5193C144.886 80.4497 144.404 85.0675 143.475 85.5844L38.8727 145.495C34.8098 147.821 29.8001 144.048 25.7717 141.635L1.66988 127.282C1.11 126.961 0.651695 126.488 0.347292 125.918C0.0428899 125.349 -0.095352 124.705 -0.0516794 124.06V119.132H4.32106Z" fill="#7A7A7A"/>
<path d="M4.32106 119.132V119.804L105.067 62.1164C107.198 60.8888 109.614 60.2427 112.073 60.2427C114.532 60.2427 116.949 60.8888 119.08 62.1164L138.775 73.6437H145.007V79.1058V79.5193C144.917 80.6934 144.366 81.784 143.475 82.5519L38.8727 142.462C36.8112 143.497 34.5122 143.966 32.2105 143.821C29.9089 143.675 27.687 142.921 25.7717 141.635L1.66988 127.282C1.11 126.961 0.651695 126.488 0.347292 125.918C0.0428899 125.349 -0.095352 124.705 -0.0516794 124.06V119.132H4.32106Z" fill="#00B3EF"/>
<path d="M4.32094 119.133H0.034257V124.043C-0.0094156 124.688 0.128853 125.332 0.433255 125.901C0.737657 126.471 1.19593 126.944 1.75581 127.265L25.8576 141.618C28.9278 143.56 32.6285 144.239 36.187 143.514V110.259H21.1406L4.45867 119.822L4.32094 119.133Z" fill="#0055C4"/>
<path d="M143.423 77.1243L38.821 137.018C36.8228 138.162 34.5564 138.754 32.2542 138.733C29.952 138.712 27.6968 138.078 25.72 136.897L1.6182 122.544C1.08419 122.245 0.639537 121.808 0.330051 121.28C0.0205662 120.751 -0.142578 120.15 -0.142578 119.537C-0.142578 118.925 0.0205662 118.323 0.330051 117.795C0.639537 117.266 1.08419 116.83 1.6182 116.531L104.912 57.3782C107.043 56.1505 109.459 55.5044 111.918 55.5044C114.378 55.5044 116.794 56.1505 118.925 57.3782L143.268 71.6278C143.759 71.8918 144.171 72.2808 144.464 72.7555C144.757 73.2301 144.919 73.7737 144.935 74.3312C144.951 74.8888 144.819 75.4406 144.554 75.931C144.288 76.4214 143.898 76.8331 143.423 77.1243Z" fill="#008AD7"/>
<path d="M127.12 63.3056C127.304 62.9344 127.548 62.5966 127.843 62.3062C128.43 61.7896 128.961 61.212 129.427 60.5832C129.955 59.4731 130.169 58.2397 130.047 57.0164C130.074 55.3449 130.311 53.6835 130.753 52.0713C130.895 51.2113 131.27 50.4069 131.837 49.7452C132.664 49.0215 133.249 50.1587 133.473 50.8651C133.504 51.0263 133.589 51.1722 133.714 51.2786C133.92 51.3993 134.161 51.2786 134.385 51.2786C134.953 51.2786 135.091 52.1229 135.556 52.4676C135.693 52.5882 135.883 52.6571 135.986 52.8294C136.012 53.0238 136.012 53.2209 135.986 53.4153C136.063 53.6667 136.205 53.8928 136.399 54.07C136.979 54.9067 137.355 55.8681 137.496 56.8768C137.636 57.8855 137.538 58.9131 137.208 59.8767C136.902 60.579 136.699 61.3218 136.606 62.0822C136.606 63.6847 136.864 65.2698 136.847 66.8895C136.847 67.527 136.847 68.6126 136.365 69.0089C135.877 69.3404 135.358 69.6232 134.815 69.8532C133.927 70.3041 132.907 70.4203 131.94 70.1806C131.717 70.1806 131.321 69.4741 131.166 69.3018C130.546 68.6126 129.943 67.9061 129.341 67.2169C128.738 66.5277 127.86 65.6317 127.189 64.7874C127.053 64.5664 126.976 64.3145 126.964 64.0554C126.952 63.7962 127.005 63.5382 127.12 63.3056Z" fill="#F8CFB3"/>
<path d="M117.445 57.3435C117.872 56.4844 118.455 55.713 119.166 55.069C119.431 54.8298 119.658 54.5508 119.838 54.2419C120.047 53.6934 120.118 53.1015 120.044 52.5189C119.992 51.0532 120.096 49.5861 120.354 48.1424C120.543 47.0396 120.905 46.8328 121.766 46.2987C122.144 46.0575 122.282 45.8162 122.764 45.8679C122.954 45.8679 123.986 46.3159 123.986 46.5571C124.004 46.2676 124.135 45.9967 124.351 45.8032C124.567 45.6097 124.85 45.5091 125.14 45.5233C125.426 45.546 125.702 45.6398 125.942 45.7963C126.183 45.9528 126.38 46.1669 126.517 46.4193C126.798 46.9511 126.951 47.541 126.965 48.1424C127.326 50.0321 127.326 51.9732 126.965 53.8629C126.667 54.568 126.464 55.3097 126.362 56.0684C126.362 57.6536 126.621 59.256 126.621 60.8757C126.621 61.5132 126.62 62.5988 126.121 62.9951C125.636 63.3301 125.116 63.613 124.572 63.8394C123.684 64.2903 122.663 64.4065 121.697 64.1668C121.473 64.1668 121.077 63.4603 120.922 63.288L119.097 61.2031C118.305 60.3071 116.928 59.48 117.238 58.1188C117.276 57.8532 117.346 57.593 117.445 57.3435Z" fill="#F8CFB3"/>
<path d="M74.3195 95.5265L123.556 67.0789C123.974 66.8433 124.342 66.5271 124.637 66.1486C124.933 65.77 125.15 65.3366 125.278 64.8734C125.402 64.4127 125.434 63.9319 125.372 63.4588C125.31 62.9856 125.155 62.5295 124.916 62.1165C123.659 59.7218 121.959 57.5877 119.906 55.8273C119.426 55.3822 118.829 55.0834 118.185 54.9658C117.339 54.9914 116.527 55.3009 115.878 55.8446C112.59 58.119 109.491 60.6002 106.099 62.7368C102.478 65.0257 98.7428 67.1305 94.9093 69.0431C86.5253 73.2129 77.5043 76.0733 69.3097 80.5532C68.4145 81.0357 67.7087 81.7593 66.8135 82.2763L74.3195 95.5265Z" fill="#63D5DB"/>
<path d="M95.1334 78.761L94.5137 78.9333C92.9585 79.0991 91.4311 79.464 89.9688 80.0189C96.5279 75.5562 103.431 71.5931 110.266 67.5439C112.917 65.9587 115.637 64.0978 118.409 62.8228C119.408 62.3915 120.319 61.778 121.094 61.0136C121.439 60.6862 122.678 59.1182 123.264 59.2905C123.929 59.9986 124.429 60.8461 124.727 61.7717C124.021 62.3231 123.35 62.9089 122.816 63.2708C121.318 64.2701 119.821 65.2695 118.306 66.2516C114.742 68.5778 111.041 70.6627 107.322 72.6959C104.413 74.2811 101.538 75.918 98.5421 77.3481C97.4559 77.932 96.314 78.4053 95.1334 78.761Z" fill="#21B0B8"/>
<path d="M76.127 87.6349L82.3762 84.1888C86.5387 82.1715 90.8154 80.3995 95.1846 78.8818C99.3421 77.0539 103.394 74.9945 107.322 72.7133C111.04 70.68 114.741 68.5952 118.305 66.269C119.82 65.2869 121.318 64.2875 122.816 63.2881C123.883 62.5645 125.553 60.8759 126.81 60.6347C129.116 60.1867 131.871 62.6162 132.904 64.3909C133.744 65.748 134.36 67.2315 134.729 68.7847C133.975 69.2526 133.245 69.7587 132.542 70.301C127.477 74.0053 121.993 77.0995 116.205 79.5193C113.677 80.5629 111.265 81.868 109.009 83.4135L101.193 89.0134C98.9011 90.8297 96.362 92.3092 93.6524 93.4072C90.3784 94.6421 87.3694 96.49 84.7864 98.852C84.2899 99.26 83.8292 99.7096 83.4091 100.196L76.127 87.6349Z" fill="#63D5DB"/>
<path d="M76.127 87.6349L78.5371 86.3254L84.0289 95.8367C84.0289 95.8367 88.9009 93.9585 89.469 93.7345C91.5587 92.8697 93.5838 91.8562 95.5289 90.7019C98.4039 88.9789 101.244 87.2558 104.137 85.326C110.128 81.4491 115.74 76.9692 121.8 73.1612C124.606 71.4382 127.464 69.7151 130.408 68.1644C131.165 67.7681 132.887 66.4413 133.851 66.8721C134.815 67.3029 134.97 69.2671 134.901 70.1803C134.877 70.7568 134.673 71.3113 134.318 71.7657C133.963 72.2201 133.474 72.5515 132.921 72.7132C127.677 74.7186 122.68 77.3202 118.03 80.467C113.244 83.4823 108.527 86.7044 103.965 90.0644C99.7029 93.4594 95.0002 96.2591 89.9855 98.3867C87.924 99.1587 85.9266 100.092 84.0117 101.178L76.127 87.6349Z" fill="#21B0B8"/>
<path d="M58.998 81.5868C58.998 81.5868 60.9262 78.9505 61.787 77.9684C62.6478 76.9862 63.6635 74.126 64.421 74.6773C65.1785 75.2287 63.2331 78.6232 63.2331 78.6232L68.7593 75.7801C68.8331 75.723 68.9194 75.6844 69.0111 75.6675C69.1028 75.6506 69.1972 75.6558 69.2864 75.6827C69.3757 75.7097 69.4572 75.7576 69.5242 75.8225C69.5913 75.8874 69.6418 75.9674 69.6717 76.0558L69.9472 76.745C69.9472 76.745 71.3072 75.8662 71.1006 78.3819C70.894 80.8976 70.8079 80.4496 69.8267 81.1732C68.4687 82.3409 66.9639 83.3257 65.3506 84.1025C62.8027 85.2914 60.9434 85.9806 60.9434 85.9806L58.998 81.5868Z" fill="#F8CFB3"/>
<path d="M29.4727 94.2169L58.3948 79.1919L61.6141 84.0337L63.7316 87.2041L55.8813 91.684L41.4375 99.9547L29.4727 94.2169Z" fill="#3D9595"/>
<path d="M26.753 100.868C26.2762 100.152 26.0362 99.3046 26.0671 98.445C26.098 97.5854 26.3982 96.7572 26.9252 96.0777C29.4387 93.7344 35.4297 91.1153 38.4768 89.5646C39.6819 88.9615 40.9214 88.4274 42.161 87.8415L51.6295 83.7062C53.0928 83.0687 64.6789 78.6921 68.0015 77.7272C73.8204 76.0042 83.3406 83.0687 87.5928 85.8773L91.8623 88.7031C93.0334 89.3304 94.0055 90.2735 94.6684 91.4255C96.0457 94.4064 92.8608 95.4402 90.881 96.319L75.7658 103.211L50.0801 114.756C49.667 114.928 45.2942 117.323 44.9155 117.047L38.8728 112.154C35.6931 109.572 32.9695 106.473 30.8159 102.987C30.506 102.505 30.2134 102.005 29.9379 101.505C29.6625 101.006 27.0113 101.592 26.8047 101.178L26.753 100.868Z" fill="#57BAB2"/>
<path d="M42.4537 100.609C40.2845 102.091 40.405 107.26 40.1468 107.795L39.3377 109.518C39.1444 109.915 38.825 110.237 38.4294 110.434C38.0338 110.63 37.5844 110.69 37.1513 110.603L36.6693 110.138C36.5628 110.037 36.4649 109.928 36.3766 109.811C35.8429 109.276 35.3264 108.725 34.8444 108.087L34.0525 107.157V107.071C33.4312 106.302 32.8563 105.496 32.3309 104.659C32.1772 104.467 32.0445 104.259 31.935 104.038C31.8912 104.007 31.8557 103.966 31.8317 103.918C31.6767 103.711 31.5734 103.504 31.4357 103.28C31.3796 103.232 31.3329 103.173 31.298 103.108L30.6094 101.919L30.9537 100.971C32.6355 99.7438 34.7282 99.2186 36.7898 99.5067C38.9245 99.9891 49.03 96.1812 49.03 96.1812C49.03 96.1812 45.2254 98.7485 42.4537 100.609Z" fill="#F6C5A4"/>
<path d="M45.0707 116.737C44.4149 116.562 43.8195 116.211 43.3491 115.721C41.8858 114.515 40.4053 113.343 38.9247 112.154C38.1845 111.551 37.4786 110.914 36.79 110.259L36.549 110.035C35.8948 109.397 35.2578 108.742 34.6552 108.053L34.3798 107.743C33.7773 107.054 33.2092 106.347 32.6583 105.606C32.5913 105.533 32.5335 105.452 32.4861 105.365C31.918 104.59 31.3671 103.797 30.8678 102.987C30.5579 102.505 30.2653 102.005 29.9898 101.506L29.8866 101.316C29.6455 100.903 26.9427 101.316 26.7189 100.903C26.4964 100.47 26.3232 100.013 26.2024 99.5414C26.2008 99.5127 26.2008 99.4839 26.2024 99.4552C26.15 99.1937 26.1155 98.9288 26.0991 98.6626C26.0719 97.9633 26.2074 97.2672 26.4951 96.6294C27.3731 98.1801 30.8506 98.7832 31.9524 100.196C31.5252 100.387 31.1111 100.605 30.7129 100.851L30.3686 101.799L31.0572 102.987C31.0957 103.056 31.1419 103.119 31.1949 103.177C31.3326 103.401 31.4359 103.608 31.5909 103.815C31.6149 103.863 31.6504 103.904 31.6942 103.935C31.8037 104.155 31.9364 104.363 32.0901 104.555C32.6155 105.393 33.1904 106.199 33.8117 106.968V107.054L34.6036 107.984C35.0856 108.553 35.6021 109.104 36.1358 109.707C36.2253 109.829 36.3294 109.939 36.4457 110.035L36.9277 110.5C37.3608 110.586 37.8103 110.527 38.2059 110.33C38.6014 110.134 38.9209 109.812 39.1141 109.414L39.8371 107.933L43.6418 111.017L92.4996 91.4258C92.7922 92.0116 93.0677 92.5975 93.3259 93.1488C93.7104 95.4253 93.7972 97.7422 93.5842 100.041C87.025 102.608 80.4659 105.21 74.1306 108.226C68.0707 111.138 60.3581 110.052 54.8835 113.963C53.8147 115.014 52.5671 115.866 51.1994 116.479C49.7425 116.86 48.2183 116.907 46.7406 116.617C46.2069 116.617 45.7593 116.755 45.2773 116.72C45.2088 116.73 45.1398 116.736 45.0707 116.737Z" fill="#3D9595"/>
<path d="M32.2451 109.087L37.4098 107.967C37.9581 107.658 38.4213 107.218 38.7578 106.685C39.0943 106.153 39.2936 105.545 39.3379 104.917C39.4635 103.439 39.0406 101.967 38.1501 100.782L37.4959 100.23L32.3312 101.35L32.2451 109.087Z" fill="#F4B387"/>
<path d="M32.3997 101.35L33.5876 101.092L33.4843 106.261L38.6489 105.124C38.8869 104.984 39.1116 104.822 39.3203 104.641C39.3203 104.745 39.3203 104.865 39.3203 104.986C39.276 105.614 39.0767 106.222 38.7402 106.754C38.4037 107.286 37.9405 107.727 37.3922 108.036L32.2275 109.156L32.3997 101.35Z" fill="#F3A977"/>
<path d="M92.3789 99.4724C92.3789 99.4724 93.6356 97.0774 94.2554 96.1642C94.8752 95.251 94.9957 92.8731 96.0974 93.1661C97.1992 93.459 96.2352 96.4054 96.2352 96.4054L101.71 93.2005C101.883 93.0692 102.095 92.998 102.312 92.998C102.53 92.998 102.741 93.0692 102.915 93.2005L103.517 93.683C103.517 93.683 104.774 92.7526 105.532 94.7168C106.289 96.6811 106.014 96.4399 105.101 97.1119C103.868 98.3236 102.472 99.356 100.952 100.179C98.3871 101.557 96.4418 102.436 96.4418 102.436L92.3789 99.4724Z" fill="#F8CFB3"/>
<path d="M48.9437 118.529C47.8005 118.628 46.6571 118.343 45.6938 117.719C44.7305 117.095 44.0023 116.168 43.6241 115.083C42.3674 111.275 44.5193 109.449 51.526 107.174C58.5328 104.9 70.6698 107.174 70.6698 107.174L92.3269 95.3198L98.9549 102.212L76.3165 115.256L48.9437 118.529Z" fill="#77CCCA"/>
<path d="M48.9436 118.529C47.8004 118.628 46.657 118.343 45.6937 117.719C44.7305 117.095 44.0023 116.168 43.624 115.083C44.5263 115.512 45.5179 115.719 46.5162 115.686L73.889 112.447L96.2692 99.5586L98.9032 102.315L76.2648 115.359L48.9436 118.529Z" fill="#3D9595"/>
<path d="M34.7922 110.086C35.5201 109.021 36.0992 107.862 36.5138 106.64C38.5624 100.144 32.933 98.1281 28.6807 98.4038C25.2077 98.49 21.7645 99.0701 18.4547 100.127C18.2817 100.684 18.2291 101.272 18.3003 101.851C18.3716 102.431 18.565 102.988 18.8678 103.487C21.0714 108.053 22.0527 110.379 25.0138 109.655C27.9749 108.932 29.9719 108.587 29.9719 108.587L30.2473 109.81C30.2473 109.81 25.0827 112.585 26.8042 113.739C30.5744 116.203 30.0579 111.051 34.7922 110.086Z" fill="#F8CFB3"/>
<path d="M26.1162 113.343C26.0539 113.207 26.0188 113.061 26.0129 112.912C26.0129 112.826 26.1162 112.791 26.1334 112.688C26.1469 112.626 26.1469 112.561 26.1334 112.498C26.0158 111.995 25.7152 111.552 25.2899 111.258C24.9279 111.065 24.5472 110.909 24.1537 110.793C23.1336 110.55 22.1918 110.052 21.4164 109.345C20.9344 108.846 20.7622 108.122 20.3146 107.622C19.867 107.123 19.3333 106.778 18.9029 106.278C18.027 105.453 17.4771 104.34 17.3535 103.142C17.3685 102.741 17.4262 102.342 17.5257 101.953C17.6734 101.254 17.9603 100.592 18.3692 100.006C18.3692 100.006 18.3692 100.006 18.4725 100.006C18.5758 100.006 18.5758 100.093 18.5758 100.161C18.5758 100.609 18.5758 101.057 18.5758 101.505C18.768 103.145 19.4412 104.691 20.5105 105.949C21.5798 107.206 22.9973 108.118 24.584 108.57C26.659 108.987 28.8068 108.857 30.8161 108.191C31.8825 107.896 32.9291 107.534 33.9493 107.105C34.3797 106.916 36.6866 106.14 36.7727 105.692C36.7727 106.003 36.635 106.313 36.5317 106.64C36.1171 107.862 35.5379 109.021 34.8101 110.086C33.3066 110.437 31.9694 111.295 31.0227 112.516C30.7602 112.777 30.5344 113.073 30.3512 113.395C30.2196 113.743 29.9855 114.043 29.6798 114.256C29.4564 114.364 29.2188 114.439 28.974 114.48C28.5436 114.583 28.1132 114.721 27.6656 114.79C27.5125 114.833 27.3519 114.844 27.1946 114.82C27.0372 114.796 26.8868 114.739 26.7532 114.652C26.6052 114.518 26.4979 114.345 26.4433 114.153C26.3903 114.053 26.3443 113.949 26.3056 113.842C26.2195 113.705 26.1679 113.515 26.1162 113.343Z" fill="#F5BD97"/>
<path d="M25.9785 118.064C29.4031 115.992 32.4007 113.284 34.8101 110.086C34.8101 110.189 34.1214 110.258 33.9837 110.31C32.641 110.875 31.4796 111.799 30.6267 112.981C30.3098 113.407 29.9261 113.78 29.4904 114.084C28.8594 114.461 28.113 114.595 27.3901 114.463C27.2063 114.406 27.0371 114.31 26.8946 114.181C26.7522 114.051 26.64 113.892 26.566 113.714C26.492 113.537 26.4581 113.345 26.4667 113.153C26.4752 112.96 26.526 112.772 26.6154 112.602C26.936 112.086 27.3576 111.64 27.8549 111.292C28.6215 110.693 29.4396 110.162 30.2996 109.707L30.0241 108.484C30.0241 108.484 30.0241 108.122 27.063 108.828C24.102 109.535 20.1768 107.484 18.0249 102.918C17.319 101.454 18.197 100.816 18.5069 100.023C16.4592 101.05 14.7631 102.664 13.6349 104.658C11.4313 108.914 10.3811 114.204 14.7883 117.685C19.9186 121.768 25.9785 118.064 25.9785 118.064Z" fill="#222222"/>
<g style="mix-blend-mode:overlay">
<path d="M71.2893 43.2318L77.6246 88.393L65.0572 96.009L52.4727 88.5137L63.7316 42.353L71.2893 43.2318Z" fill="#12D3FF"/>
</g>
<path d="M64.352 49.0558L66.1424 53.4323L42.3505 39.7857L40.6289 35.4092L64.352 49.0558Z" fill="#514F60"/>
<path d="M64.3516 49.0555L66.142 53.432L86.749 41.1811L88.4706 36.8218L64.3516 49.0555Z" fill="#514F60"/>
<path d="M68.4839 40.4062L65.936 50.1759L39.8027 35.1336L42.4023 25.3467L68.4839 40.4062Z" fill="#C2C1C7"/>
<path d="M89.2976 27.9826L68.4839 40.4058L42.4023 25.3463L63.7324 12.5957L89.2976 27.9826Z" fill="#E2E1E3"/>
<path d="M68.4835 40.4061L65.9355 50.1759L91.5007 35.4954L89.2971 27.9829L68.4835 40.4061Z" fill="#91909A"/>
<path d="M111.815 79.4849L102.261 85.102L114.535 93.5622L125.416 87.3075L111.815 79.4849Z" fill="#E2E1E3"/>
<path d="M125.415 87.3076L106.685 98.1284L116.893 148.614L135.641 137.793L125.415 87.3076Z" fill="#CAC9CE"/>
<path d="M130.408 118.857L126.156 97.353L113.278 104.659L117.531 126.163L130.408 118.857Z" fill="#91909A"/>
<path d="M129.479 118.426L125.571 98.645L114.226 105.089L118.134 124.87L129.479 118.426Z" fill="#177A8B"/>
<path d="M85.9746 34.2373L76.4199 39.8545L106.685 98.1282L117.582 91.8735L85.9746 34.2373Z" fill="#C2C1C7"/>
<path d="M135.641 137.793L128.445 160.21L111.97 170.376L116.893 148.614L135.641 137.793Z" fill="#AAA9B1"/>
<path d="M111.97 170.376V192.517L128.445 183.023V160.21L111.97 170.376Z" fill="#91909A"/>
<path d="M76.4199 39.8545L106.685 98.1282L116.894 148.614L111.97 170.376V192.5L101.52 186.538V166.826V163.725V92.4594L76.4199 44.1104V39.8545Z" fill="#B2B1B9"/>
<path d="M59.2197 82.2052L58.6943 83.1152L71.4689 90.503L71.9943 89.5929L59.2197 82.2052Z" fill="#0045BA"/>
<path d="M71.532 82.1841L58.7549 89.5674L59.28 90.4777L72.0571 83.0944L71.532 82.1841Z" fill="#0045BA"/>
<path d="M129.479 118.426L114.226 105.089L125.571 98.645L129.479 118.426Z" fill="#639DA5"/>
</g>
<defs>
<clipPath id="clip0_1_214">
<rect width="184" height="192" fill="white" transform="translate(0 0.5)"/>
</clipPath>
</defs>
</svg>
